<?xml version="1.0" standalone="no"?>
<!DOCTYPE svg PUBLIC "-//W3C//DTD SVG 20010904//EN"
 "http://www.w3.org/TR/2001/REC-SVG-20010904/DTD/svg10.dtd">
<svg version="1.0" xmlns="http://www.w3.org/2000/svg"
 width="940.000000pt" height="523.000000pt" viewBox="0 0 940.000000 523.000000"
 preserveAspectRatio="xMidYMid meet">

<g transform="translate(0.000000,523.000000) scale(0.100000,-0.100000)"
fill="#000000" stroke="none">
<path d="M0 3238 c0 -1952 0 -1991 19 -1972 10 10 15 23 10 28 -4 5 3 23 17
41 13 17 24 39 24 48 0 9 6 20 13 24 7 4 18 24 23 43 6 23 20 40 39 50 17 8
33 19 36 24 11 14 17 -25 14 -79 -3 -50 -14 -94 -32 -131 -65 -130 -82 -183
-98 -297 -10 -78 -18 -104 -37 -124 l-23 -25 -3 -339 c-1 -186 0 -339 3 -339
3 0 18 7 33 16 24 14 23 12 -6 -13 -32 -29 -32 -31 -30 -109 l3 -79 1720 0
c1373 0 1728 3 1760 13 84 27 118 33 129 22 5 -5 19 -10 30 -10 16 0 17 3 8
12 -25 25 -13 35 35 32 32 -3 52 1 64 12 14 12 22 13 38 5 11 -7 32 -9 45 -5
15 3 38 -1 57 -10 18 -9 39 -16 48 -16 9 0 40 -9 69 -20 29 -11 68 -20 87 -20
18 0 37 -4 40 -10 4 -7 398 -10 1151 -10 1049 0 1144 1 1144 16 0 13 3 14 14
5 12 -10 16 -8 21 11 10 31 35 59 47 51 11 -6 57 44 58 63 0 12 30 15 30 3 0
-4 9 -5 20 -2 11 3 20 10 20 15 0 6 11 18 24 29 13 10 29 32 36 49 11 27 14
28 25 14 9 -14 16 -14 33 -5 12 6 22 18 22 27 0 16 39 34 76 34 14 0 23 4 19
10 -6 10 42 46 51 37 3 -3 33 7 67 23 34 15 74 30 90 34 15 3 27 13 27 20 0 9
7 12 20 9 20 -5 90 32 90 48 0 5 9 9 20 9 11 0 20 4 20 10 0 5 12 13 28 16 15
4 47 17 71 30 24 13 48 21 53 18 5 -4 19 3 31 14 12 11 40 24 62 27 22 4 45
11 51 16 5 5 23 2 39 -7 69 -36 240 -34 252 3 3 7 -15 22 -39 34 -54 27 -88
58 -88 80 0 17 -30 48 -127 135 -30 26 -57 61 -63 80 -6 19 -16 34 -21 34 -6
0 -15 13 -20 30 -6 16 -19 32 -29 35 -27 8 -60 67 -60 104 0 18 -5 41 -11 53
-9 16 -14 49 -18 111 -1 4 -17 7 -36 7 -31 0 -37 4 -59 48 -13 26 -27 69 -31
96 -9 62 -67 196 -91 209 -13 7 -20 5 -30 -8 -13 -17 -26 -112 -28 -200 l-1
-50 -99 -3 c-91 -3 -102 -5 -143 -33 -44 -31 -68 -70 -59 -96 4 -9 29 -13 91
-13 52 0 99 -6 120 -14 32 -14 35 -19 35 -55 0 -47 -25 -77 -74 -86 -17 -4
-50 -15 -73 -26 -24 -10 -53 -19 -65 -19 -13 -1 -34 -7 -47 -14 -28 -16 -33
-14 87 -42 39 -9 72 -21 72 -25 0 -5 5 -9 11 -9 7 0 26 -15 43 -34 85 -92 98
-157 34 -170 -71 -15 -188 -19 -188 -7 0 18 -54 13 -67 -7 -17 -28 -140 -49
-193 -33 -50 15 -56 47 -10 62 30 11 41 41 19 55 -19 11 -5 111 20 145 l23 30
-74 -6 c-63 -6 -743 -137 -853 -165 -61 -15 -75 -12 -85 15 -8 21 -14 24 -41
18 -23 -4 -35 -2 -44 10 -6 9 -24 18 -40 21 -41 8 -47 17 -43 72 3 47 4 49 43
63 22 7 65 13 97 13 42 0 61 5 77 19 22 21 24 28 15 53 -4 10 -18 16 -38 16
-29 -1 -30 -1 -12 -15 21 -16 21 -17 -10 -33 -15 -8 -24 -8 -32 0 -7 7 -41 12
-81 11 l-69 -1 -6 30 c-3 17 -6 46 -6 64 0 32 3 34 45 45 60 15 59 32 -1 23
-37 -5 -46 -4 -42 7 5 16 60 18 150 6 56 -7 58 -6 64 18 8 32 -11 55 -45 55
l-26 0 23 -18 c31 -24 19 -32 -36 -24 -26 3 -70 6 -99 6 l-52 -1 -9 56 c-6 31
-8 59 -6 63 3 4 27 10 54 14 28 4 50 10 50 14 0 11 -51 19 -84 13 -21 -4 -27
-2 -24 8 6 18 85 31 109 18 11 -5 24 -7 29 -4 5 3 18 0 30 -7 25 -16 53 -1 58
29 4 28 -22 47 -55 38 l-28 -7 30 -14 c28 -13 25 -14 -45 -9 -41 3 -89 5 -106
5 -35 -1 -44 16 -44 81 l0 37 78 9 77 10 -65 2 c-49 1 -61 4 -50 12 12 8 7 9
-17 6 -37 -4 -45 8 -10 17 37 10 82 7 95 -6 10 -10 15 -10 22 2 8 12 10 12 16
-3 14 -37 80 -10 72 29 -5 26 -31 38 -64 29 l-29 -8 34 -9 c49 -13 35 -17 -47
-11 -49 4 -69 9 -60 15 8 6 -2 7 -28 3 -40 -6 -41 -5 -48 26 -15 75 -14 76 70
84 41 4 74 8 72 10 -2 2 -33 5 -69 6 -46 3 -65 7 -62 15 6 16 54 24 76 12 10
-5 23 -8 30 -5 6 2 18 -2 25 -10 19 -18 36 -16 56 6 25 28 13 61 -23 61 -40 0
-46 -12 -14 -27 28 -13 27 -13 -12 -8 -22 3 -58 5 -80 5 -30 0 -36 3 -25 11
11 7 6 9 -22 7 -20 -1 -39 0 -41 2 -3 3 -7 26 -11 51 l-7 46 73 10 73 10 -55
2 c-30 1 -63 8 -73 15 -16 12 -14 14 25 18 24 3 50 1 58 -3 32 -16 81 -28 95
-23 36 14 24 74 -15 74 -28 0 -32 -13 -8 -27 25 -15 36 -15 -124 3 -61 7 -68
14 -68 82 l0 32 53 0 c37 0 48 3 37 10 -8 5 -31 10 -50 10 -24 0 -31 3 -23 11
15 15 60 13 114 -4 52 -16 79 -8 79 23 0 20 -27 40 -56 40 -16 0 -16 -1 1 -20
22 -24 19 -25 -87 -8 -44 6 -78 16 -78 23 0 23 -21 34 -42 22 -16 -10 -21 -9
-29 6 -11 19 -64 24 -74 7 -4 -6 -12 -7 -18 -3 -9 6 -69 12 -122 13 -5 0 -38
-5 -73 -12 -51 -10 -64 -16 -68 -34 -7 -28 -20 -33 -64 -25 -41 7 -72 28 -88
58 -16 30 -15 41 1 18 23 -30 30 -3 34 134 3 69 7 128 9 130 2 2 21 -4 43 -14
22 -9 44 -14 51 -10 7 4 14 -1 17 -14 4 -15 13 -21 34 -21 16 0 29 -4 29 -8 0
-21 134 -61 205 -62 45 0 205 47 205 61 0 5 -12 9 -26 9 -24 0 -26 3 -21 30 5
24 1 35 -20 54 -20 19 -25 31 -21 55 3 21 0 31 -9 31 -7 0 -13 7 -13 16 0 8
-4 12 -10 9 -13 -8 -13 8 1 22 8 8 8 13 0 17 -6 4 -11 4 -11 0 0 -4 -11 3 -24
15 -13 12 -44 25 -68 29 -37 6 -52 16 -90 59 -25 28 -49 49 -52 46 -3 -4 -6 5
-6 18 0 16 -3 20 -8 11 -6 -8 -9 -2 -9 18 0 21 5 30 16 30 33 0 151 -29 182
-44 18 -9 42 -16 55 -16 13 0 29 -9 36 -19 8 -11 25 -19 38 -20 14 0 48 -4 75
-10 161 -31 171 -31 293 -5 64 13 135 24 158 24 22 0 49 7 60 15 17 13 12 14
-56 9 -41 -4 -100 -13 -130 -20 -60 -15 -100 -18 -101 -6 0 4 -3 18 -6 32 -3
14 -5 55 -4 93 1 37 -3 67 -8 67 -5 0 -11 9 -14 20 -5 21 -27 28 -27 9 0 -6
-7 -8 -16 -5 -8 3 -12 2 -9 -4 10 -16 -11 -11 -25 5 -7 9 -21 13 -31 10 -22
-7 -26 14 -7 33 9 9 9 12 0 12 -7 0 -23 -24 -36 -52 -23 -51 -24 -52 -19 -15
4 24 2 37 -6 37 -6 0 -11 -7 -11 -15 0 -8 -4 -15 -10 -15 -15 0 -12 11 10 45
11 17 20 24 20 17 0 -8 15 -3 41 14 23 14 38 21 35 15 -13 -21 13 -11 30 11
10 14 14 16 11 6 -5 -13 1 -12 29 7 52 35 108 39 535 36 121 -1 138 -3 159
-21 13 -11 28 -30 34 -42 15 -30 36 -35 36 -8 0 18 4 20 23 14 23 -7 243 -149
332 -215 56 -41 110 -64 87 -36 -9 10 -9 16 -2 19 16 5 1 36 -21 43 -10 4 -19
11 -19 18 0 8 3 8 12 -1 7 -7 19 -12 27 -12 21 0 -13 35 -50 50 -16 7 -29 16
-29 21 0 5 -7 9 -15 9 -9 0 -35 9 -57 20 -55 26 -57 25 -23 -10 33 -35 29 -49
-6 -22 -13 10 -33 22 -43 26 -18 6 -18 7 -1 20 20 14 13 36 -11 36 -8 0 -12 5
-9 10 3 6 -3 10 -14 10 -11 0 -30 13 -43 28 -13 16 -40 42 -61 57 -27 20 -37
34 -34 47 7 25 -33 24 -63 -2 -24 -21 -42 -23 -208 -24 -70 -1 -91 2 -87 12 6
16 -7 16 -24 0 -8 -9 -58 -13 -174 -13 -89 0 -205 -4 -257 -8 -52 -4 -88 -4
-80 0 17 9 19 21 7 40 -4 6 -7 31 -6 55 1 24 -2 82 -6 130 -7 76 -10 85 -21
70 -12 -15 -13 -15 -14 9 0 45 -60 80 -100 59 -19 -10 -27 -6 -67 37 -41 43
-43 45 -29 15 17 -32 17 -33 -4 -20 -11 7 -20 15 -20 19 0 14 -80 90 -89 85
-5 -4 -16 3 -24 14 -12 17 -18 18 -49 10 -35 -10 -50 -6 -142 38 -4 3 -6 -4
-3 -14 20 -64 19 -69 -8 -72 -15 -1 -28 4 -31 13 -4 9 -11 14 -18 13 -6 -1
-32 11 -59 28 -33 20 -47 35 -47 51 0 12 -2 27 -5 35 -3 7 4 28 15 46 19 31
21 32 44 17 30 -20 37 -11 45 64 5 46 10 58 31 69 37 19 126 10 190 -20 59
-27 165 -123 180 -162 6 -17 26 -30 65 -45 31 -12 64 -21 75 -21 10 0 22 -5
26 -12 5 -7 3 -8 -6 -3 -9 5 -11 4 -6 -4 4 -6 11 -9 16 -6 4 3 31 -6 58 -20
27 -14 54 -25 59 -25 5 0 24 -11 43 -25 19 -14 44 -25 57 -25 13 0 40 -7 61
-16 20 -9 53 -20 72 -24 19 -4 44 -11 55 -15 27 -10 -120 99 -165 122 -19 10
-55 33 -79 52 -25 18 -56 37 -68 42 -27 10 -29 26 -5 57 l18 23 79 -57 c44
-32 143 -100 220 -152 77 -52 139 -100 137 -106 -1 -8 7 -11 25 -9 16 3 60 -2
98 -10 39 -8 72 -13 75 -10 2 2 -26 31 -62 64 -79 71 -128 160 -128 234 0 29
-4 45 -12 45 -9 0 -8 4 2 11 11 8 12 12 3 16 -20 7 -15 57 6 75 21 18 31 14
31 -14 0 -27 13 -22 34 13 17 28 22 30 60 27 22 -3 49 -8 59 -12 14 -7 17 -3
17 25 -1 164 9 382 19 417 10 36 15 41 27 32 10 -9 14 -37 14 -107 0 -52 5
-103 10 -114 12 -21 -5 -145 -21 -155 -5 -3 -9 -25 -9 -49 0 -24 -5 -47 -10
-50 -16 -10 -12 -38 15 -93 15 -30 30 -50 37 -47 33 11 228 54 273 59 28 4 77
13 110 21 33 7 87 19 120 25 33 6 90 18 126 26 37 8 82 14 100 14 18 0 62 5
98 10 36 6 98 15 136 21 39 5 79 14 90 19 34 15 237 70 259 70 12 0 53 7 91
15 131 28 183 15 219 -53 8 -15 50 -63 94 -107 90 -92 135 -167 293 -493 54
-112 105 -210 113 -216 20 -15 86 -126 86 -144 0 -8 8 -26 19 -40 10 -15 61
-110 113 -212 52 -102 155 -297 228 -435 73 -137 161 -308 197 -378 60 -121
63 -130 51 -158 -7 -16 -16 -29 -19 -29 -7 0 -67 107 -84 150 -6 14 -21 48
-34 75 -39 82 -106 226 -131 283 -13 29 -30 58 -37 64 -7 6 -13 19 -13 29 0
29 -70 159 -85 159 -8 0 -15 -3 -15 -6 0 -13 63 -124 70 -124 4 0 11 -7 14
-16 6 -15 4 -15 -10 -3 -20 17 -20 16 30 -81 21 -41 44 -78 50 -82 6 -4 8 -8
3 -8 -4 0 15 -44 42 -97 107 -212 190 -391 209 -451 12 -34 47 -108 79 -165
32 -56 63 -115 69 -131 14 -39 34 -46 34 -12 0 28 18 34 38 14 16 -16 15 -88
-2 -110 -18 -24 -67 -41 -80 -28 -5 5 -20 10 -32 10 -25 0 -41 -31 -27 -52 4
-7 8 -37 9 -66 0 -34 6 -58 16 -68 15 -15 17 -14 23 7 4 13 13 31 21 40 7 8
17 33 22 55 6 31 13 40 32 42 14 2 43 9 65 16 22 7 60 11 83 8 l44 -4 -6 73
c-2 41 -5 91 -5 111 0 21 -5 56 -11 79 -6 23 -11 81 -11 130 0 92 -6 104 -38
75 -14 -12 -19 -12 -35 -1 -13 10 -19 28 -20 71 -1 35 -6 59 -14 62 -19 6 -14
47 8 67 32 29 25 50 -16 44 -4 0 -10 4 -13 9 -13 20 -72 42 -113 42 -82 0 -90
10 -214 245 -35 66 -71 133 -80 149 -13 24 -14 30 -2 37 10 7 8 10 -8 15 -26
7 -90 120 -76 137 13 17 8 227 -6 253 -6 12 -9 24 -5 27 3 4 0 13 -6 21 -7 8
-12 30 -11 48 3 50 1 60 -10 53 -11 -7 -7 -99 5 -147 5 -19 3 -28 -4 -28 -14
0 -32 43 -37 88 -2 17 -6 47 -8 65 -2 17 -7 69 -10 115 -3 46 -11 92 -16 102
-6 11 -8 31 -4 45 4 15 -1 40 -14 67 -11 24 -23 63 -27 88 -8 50 -66 185 -91
209 -8 9 -25 32 -37 51 -16 27 -22 31 -25 17 -2 -9 6 -32 17 -50 23 -36 53
-97 71 -143 14 -39 10 -90 -7 -86 -18 3 -16 -23 2 -38 11 -9 13 -16 5 -24 -13
-13 -13 -49 2 -64 8 -8 8 -15 0 -25 -7 -8 -9 -17 -5 -20 3 -4 -1 -7 -9 -7 -17
0 -29 21 -33 60 -1 14 -12 44 -24 67 -11 23 -21 51 -21 61 0 10 -7 27 -15 38
-8 10 -15 27 -15 37 0 17 -20 25 -20 7 0 -5 7 -35 16 -67 9 -32 19 -71 22 -88
3 -16 11 -34 18 -40 15 -11 8 -55 -8 -55 -6 0 -8 6 -5 14 3 8 -3 22 -14 32
-10 9 -19 22 -19 27 0 6 -11 33 -24 61 -13 28 -29 83 -36 121 -7 39 -16 79
-20 90 -25 63 -50 136 -61 180 -16 65 -26 85 -44 85 -17 0 -22 18 -35 115 -5
39 -12 84 -16 102 -11 58 30 28 88 -63 43 -68 58 -84 78 -84 25 0 70 -51 70
-79 0 -6 4 -17 10 -24 5 -7 28 -34 50 -60 22 -26 45 -58 51 -69 11 -20 12 -20
21 -4 9 16 11 15 23 -7 7 -13 15 -37 17 -53 16 -89 98 -244 106 -201 3 16 5
16 20 0 16 -16 17 -14 20 30 2 25 -4 79 -14 119 -18 79 -30 179 -40 328 -6 96
-19 134 -36 108 -5 -8 -8 45 -6 127 1 77 -1 146 -6 154 -5 7 -12 46 -17 86 -6
56 -15 83 -38 116 -30 44 -30 45 -33 196 -2 103 1 156 9 164 18 18 74 -6 123
-51 l43 -40 1 -149 c1 -145 6 -175 26 -155 11 11 15 201 5 265 -5 36 -3 49 10
62 19 20 60 22 74 5 41 -50 60 -77 75 -105 9 -18 19 -33 22 -33 3 0 2 5 -1 10
-3 6 -2 10 4 10 5 0 16 6 24 14 10 10 27 13 56 9 38 -5 41 -8 41 -38 0 -17 3
-35 7 -39 9 -8 10 -14 12 -51 3 -62 65 -25 115 69 29 55 33 98 11 116 -8 7
-12 17 -9 22 4 6 -15 9 -52 6 -52 -3 -62 -1 -81 20 -13 13 -23 36 -23 52 0 23
-5 31 -25 36 -14 3 -23 9 -21 13 3 4 -26 5 -63 3 -63 -4 -67 -3 -80 22 -8 14
-18 26 -23 26 -4 0 -8 9 -8 19 0 55 69 51 -959 51 l-946 0 -12 -27 c-6 -16
-15 -61 -19 -100 -3 -40 -10 -73 -14 -73 -4 0 -11 -10 -14 -22 -6 -21 -7 -21
-17 -6 -7 13 -5 26 6 48 39 75 27 180 -21 180 -21 0 -23 -4 -23 -42 1 -63 -35
-247 -58 -296 -17 -36 -22 -40 -28 -25 -5 10 -8 21 -7 24 0 3 3 46 7 95 3 49
9 114 14 144 12 75 1 100 -43 100 -34 0 -35 -1 -41 -47 -3 -27 -7 -55 -9 -63
-2 -18 -55 -17 -68 2 -5 7 -6 34 -3 61 l6 47 -71 0 c-38 0 -70 -2 -70 -5 0 -2
5 -15 11 -29 8 -17 8 -33 2 -53 -6 -16 -7 -38 -2 -50 5 -13 4 -25 -1 -28 -5
-3 -8 -40 -6 -83 2 -42 -1 -85 -6 -94 -5 -12 -5 -26 3 -39 8 -15 8 -24 0 -32
-14 -14 -14 -47 0 -47 6 0 8 -8 5 -18 -4 -10 -7 -92 -9 -183 -2 -162 -2 -164
20 -167 13 -2 26 4 32 16 17 31 44 32 80 1 40 -33 36 -58 -12 -84 -29 -15 -40
-16 -86 -6 -64 14 -74 14 -66 1 5 -8 -32 -30 -50 -30 -18 0 -23 47 -14 136 16
175 21 238 23 297 0 32 6 61 11 65 6 4 11 36 12 72 2 36 7 76 13 90 12 31 19
189 9 216 -4 12 -1 26 9 37 14 16 -20 17 -701 17 -395 0 -717 -3 -717 -6 0 -4
8 -14 18 -23 24 -21 46 -173 58 -400 4 -87 2 -123 -9 -155 -8 -22 -18 -73 -21
-112 -6 -76 -22 -134 -37 -134 -5 0 -9 15 -9 33 -1 17 -2 181 -4 362 -2 182
-7 354 -11 383 l-8 52 -54 0 -55 0 6 -52 c3 -29 11 -118 17 -198 8 -106 14
-147 25 -153 16 -9 20 -102 5 -111 -5 -4 -8 -39 -6 -79 2 -56 -1 -81 -17 -115
-15 -31 -19 -54 -14 -82 8 -49 -8 -93 -32 -88 -12 3 -16 12 -15 33 4 47 1 265
-3 315 -3 25 -7 91 -9 147 -2 57 -8 111 -14 120 -5 10 -12 73 -16 141 l-8 122
-49 0 -50 0 6 -42 c21 -162 36 -250 52 -298 17 -53 21 -125 16 -308 -2 -53 -6
-67 -28 -89 -14 -14 -27 -23 -29 -21 -3 2 -12 42 -20 89 -9 46 -19 91 -22 99
-4 8 -14 92 -24 185 -9 94 -23 218 -30 278 l-12 107 -44 0 c-42 0 -43 -1 -43
-33 0 -58 20 -201 31 -223 14 -28 -4 -279 -25 -349 -10 -36 -15 -43 -15 -24
-1 15 -12 51 -25 80 -34 74 -48 172 -45 319 2 69 -1 149 -5 178 l-8 52 -55 0
-54 0 7 -87 c3 -49 6 -113 5 -143 -2 -63 -29 -220 -30 -175 -1 17 -14 72 -31
123 -33 104 -35 118 -18 174 9 32 9 44 -5 73 -17 35 -17 35 -82 35 -70 0 -78
-8 -54 -52 8 -15 8 -22 -1 -28 -9 -6 -9 -13 -1 -28 21 -39 11 -102 -16 -102
-12 0 -14 14 -12 73 2 44 -2 85 -10 105 l-13 32 -1029 0 c-1019 0 -1028 0
-1034 -20 -5 -16 -15 -20 -50 -20 -24 0 -47 5 -50 10 -3 6 -17 10 -30 10 -13
0 -27 5 -30 10 -4 7 -315 10 -901 10 l-894 0 0 -1992z m1515 1942 c26 -11 60
-20 75 -20 16 0 31 -4 34 -9 3 -4 29 -11 58 -15 29 -4 57 -11 63 -15 18 -13
91 -31 129 -31 20 0 54 -9 76 -20 22 -11 45 -20 53 -20 24 0 97 -59 91 -74 -6
-15 22 -30 31 -16 8 13 77 13 111 0 15 -6 36 -20 46 -32 10 -12 18 -17 18 -12
0 5 12 9 28 8 15 -1 35 -3 44 -3 9 -1 30 -12 46 -26 17 -14 37 -25 45 -25 8 0
20 -7 27 -15 11 -13 8 -15 -14 -15 -14 0 -31 -8 -37 -18 -8 -13 -20 -17 -45
-14 -23 3 -36 0 -39 -10 -5 -13 -16 -13 -73 -3 -99 17 -162 56 -162 101 0 28
-49 46 -129 48 -38 1 -56 5 -56 14 0 23 -54 79 -81 85 -35 6 -78 -9 -68 -25
11 -17 -72 -3 -91 16 -9 9 -32 16 -50 16 -34 0 -109 32 -121 52 -4 7 0 7 12 0
11 -5 37 -12 58 -15 22 -4 42 -11 45 -16 4 -6 12 -6 21 -1 12 7 11 10 -5 15
-72 24 -131 52 -172 81 -54 38 -39 44 32 14z m571 -1 c38 -23 44 -39 15 -39
-26 0 -81 32 -81 48 0 18 28 15 66 -9z m79 -49 c8 -13 -5 -13 -25 0 -13 8 -13
10 2 10 9 0 20 -4 23 -10z m299 -45 c26 -14 30 -14 41 2 12 16 14 16 26 -10
15 -32 94 -77 149 -85 19 -2 46 -10 59 -17 l25 -12 -22 -7 c-22 -7 -31 -26
-12 -26 26 0 6 -19 -26 -25 -43 -8 -56 2 -61 47 -4 37 -15 47 -47 41 -13 -3
-27 0 -30 6 -11 16 -46 13 -46 -4 0 -8 -6 -15 -14 -15 -22 0 -82 28 -96 44 -7
9 -19 16 -27 16 -7 0 -25 7 -38 16 -15 10 -25 12 -25 5 0 -6 -7 -11 -15 -11
-17 0 -19 9 -6 29 5 7 13 11 17 8 5 -3 27 -1 49 3 60 12 68 11 99 -5z m5954
-12 c31 -46 40 -77 57 -218 3 -21 10 -44 15 -49 6 -6 10 -19 10 -31 0 -28 22
-75 35 -75 6 0 11 -19 12 -42 1 -23 7 -45 14 -49 7 -4 8 -12 3 -20 -5 -8 -9
-34 -10 -59 0 -31 -9 -58 -27 -85 -20 -32 -27 -57 -31 -124 -8 -97 -21 -133
-31 -86 -4 17 -11 41 -15 55 -15 43 -40 189 -62 368 -1 9 -10 12 -25 9 -15 -3
-23 1 -23 9 0 8 10 14 23 15 12 0 17 3 11 5 -7 3 -10 14 -7 24 3 11 0 20 -6
20 -6 0 -11 17 -11 39 0 22 -4 50 -9 63 -5 13 -12 62 -16 109 -7 85 -7 85 23
117 37 39 45 40 70 5z m-1837 -4 c28 -20 39 -49 19 -49 -5 0 -10 -7 -10 -15 0
-8 5 -15 10 -15 13 0 13 -33 0 -46 -14 -14 -36 -307 -26 -348 5 -20 11 -23 43
-20 87 9 103 14 118 44 9 17 22 30 30 30 8 0 15 7 15 15 0 18 22 19 91 3 41
-9 54 -18 63 -38 6 -15 17 -25 24 -23 7 3 12 -4 12 -17 0 -12 4 -19 9 -16 10
7 21 -17 21 -45 0 -14 -7 -19 -30 -19 -16 0 -30 4 -30 9 0 5 -10 13 -22 16
-13 4 -32 17 -43 29 -22 25 -105 50 -119 36 -5 -5 3 -19 18 -34 22 -20 27 -32
24 -63 l-3 -38 -44 3 c-24 1 -51 7 -61 12 -10 5 -54 11 -99 12 -94 3 -88 -4
-93 119 -2 52 1 80 9 88 8 7 14 39 14 79 1 37 2 81 4 97 1 17 -3 34 -9 38 -8
6 -8 10 -1 13 6 2 9 21 7 41 -3 25 0 38 11 45 12 6 14 18 10 43 -7 41 -2 42
38 14z m1399 -18 c0 -49 -17 -81 -42 -81 -20 0 -23 5 -24 40 -1 30 3 41 17 45
11 4 19 11 19 16 0 5 7 9 15 9 10 0 15 -10 15 -29z m205 11 c38 -33 75 -158
57 -195 -5 -12 -16 -38 -23 -57 -6 -19 -17 -40 -24 -45 -7 -6 -12 -19 -12 -30
1 -52 -4 -75 -16 -75 -18 0 -41 99 -34 144 3 21 0 50 -7 69 -20 49 -28 144
-15 170 22 40 43 46 74 19z m-4847 -156 c26 -14 81 -66 70 -66 -16 0 -86 44
-96 61 -14 23 -10 24 26 5z m-117 -86 c125 -63 131 -68 124 -91 -4 -12 -1 -19
7 -20 7 0 2 -5 -12 -10 -19 -8 -35 -5 -71 12 -32 15 -59 20 -85 17 -59 -7
-160 45 -175 89 -26 81 57 82 212 3z m3469 -5 c0 -8 -4 -15 -9 -15 -5 0 -11 7
-15 15 -3 9 0 15 9 15 8 0 15 -7 15 -15z m-2885 -48 c22 -12 45 -33 52 -46 12
-26 63 -59 63 -42 0 6 -9 15 -21 21 -11 7 -18 14 -15 18 8 8 86 -35 112 -62
12 -12 26 -32 32 -43 16 -29 158 -99 204 -101 49 -2 97 -27 108 -57 5 -13 19
-31 32 -39 26 -16 123 -42 196 -52 36 -4 52 -11 55 -24 6 -23 -3 -36 -30 -44
-13 -4 -23 -11 -23 -15 0 -4 -6 -8 -12 -9 -20 -1 -175 -21 -257 -32 -41 -5
-85 -17 -97 -25 -13 -8 -30 -15 -37 -15 -8 0 -20 -7 -27 -15 -16 -20 -74 -19
-94 0 -17 18 -29 70 -24 106 3 26 -18 59 -38 59 -7 0 -25 11 -41 24 -32 27
-107 65 -203 103 -36 14 -83 42 -105 63 -22 21 -59 47 -82 59 -40 20 -71 56
-59 68 8 8 52 7 103 -2 31 -5 56 -20 90 -52 39 -37 52 -44 77 -40 21 3 47 -5
86 -26 30 -17 57 -33 60 -37 3 -4 21 -15 40 -25 19 -10 53 -32 75 -50 31 -25
47 -32 69 -28 20 4 25 10 20 22 -3 9 -9 24 -11 34 -3 9 -9 17 -14 17 -5 0 -82
36 -171 79 -145 71 -170 87 -228 145 l-64 66 44 1 c25 0 54 4 65 9 26 11 24
12 70 -13z m3235 -38 c0 -14 25 -39 42 -40 7 -1 -3 -5 -22 -10 -19 -5 -48 -6
-63 -3 -15 3 -34 0 -42 -6 -13 -10 -15 -8 -15 17 0 21 7 33 23 41 29 14 77 15
77 1z m-4131 -15 c17 -4 31 -13 31 -20 0 -10 7 -13 23 -9 15 4 28 1 36 -9 8
-9 18 -16 24 -16 16 0 57 -41 57 -57 0 -7 9 -13 20 -13 11 0 20 -5 20 -11 0
-8 -12 -10 -34 -6 -19 3 -39 0 -45 -6 -8 -8 -20 -6 -46 6 -24 12 -48 15 -78
11 -43 -6 -75 4 -120 40 -24 19 -14 54 18 62 13 3 26 12 29 20 6 16 18 17 65
8z m481 -24 c0 -5 -2 -10 -4 -10 -3 0 -8 5 -11 10 -3 6 -1 10 4 10 6 0 11 -4
11 -10z m110 -214 c6 -8 21 -16 33 -18 16 -2 23 -11 25 -33 2 -16 11 -38 19
-47 27 -30 10 -37 -42 -19 -39 14 -51 22 -53 42 -2 13 -15 36 -28 50 -13 14
-21 28 -17 32 11 12 50 7 63 -7z m4472 -60 c15 -17 28 -34 28 -38 0 -5 7 -8
15 -8 17 0 39 -46 31 -67 -3 -7 -12 -13 -21 -13 -18 0 -37 43 -28 66 5 13 -1
15 -41 9 l-46 -7 0 44 c0 55 22 60 62 14z m-2982 -41 c0 -14 40 -42 40 -28 0
4 4 4 8 -2 4 -5 21 -20 38 -32 30 -21 38 -21 200 -16 316 10 291 12 371 -29
39 -21 77 -38 84 -38 7 0 32 -10 57 -21 42 -21 44 -23 37 -58 -9 -49 -12 -52
-48 -51 -72 0 -187 -9 -197 -15 -6 -3 -32 -8 -58 -11 -26 -2 -57 -6 -69 -9
-12 -3 -25 -1 -28 5 -11 18 -22 11 -60 -39 l-37 -48 -97 62 c-114 75 -255 173
-282 196 -19 16 -19 17 1 63 10 25 20 48 20 51 0 3 0 12 0 20 0 8 5 15 10 15
6 0 10 -7 10 -15z m-1550 -171 c0 -16 -16 -19 -25 -4 -8 13 4 32 16 25 5 -4 9
-13 9 -21z m5190 -39 c14 -19 14 -19 -2 -6 -10 7 -18 18 -18 24 0 6 1 8 3 6 1
-2 9 -13 17 -24z m-5363 -244 c2 -20 -22 -35 -39 -25 -5 3 -2 14 9 24 23 24
28 24 30 1z m1640 -98 c-3 -10 -5 -2 -5 17 0 19 2 27 5 18 2 -10 2 -26 0 -35z
m-2447 -135 c19 -6 52 -28 73 -49 28 -28 56 -43 110 -58 40 -12 114 -35 166
-51 51 -17 124 -35 162 -40 70 -10 139 -35 317 -114 56 -25 113 -46 127 -46
34 0 112 45 159 92 41 40 62 45 117 27 50 -17 94 -53 113 -93 9 -19 20 -81 25
-143 13 -152 31 -223 57 -223 7 0 27 -14 44 -30 17 -17 35 -28 39 -26 4 3 28
-15 52 -40 38 -39 42 -47 28 -57 -22 -17 -30 -44 -16 -56 7 -5 36 -13 64 -17
38 -5 59 -14 79 -35 18 -19 38 -29 56 -29 15 0 28 -4 28 -10 0 -5 18 -27 40
-49 48 -47 97 -149 113 -232 9 -51 15 -63 39 -75 15 -8 28 -18 28 -23 0 -14
95 -50 150 -55 187 -20 235 -29 253 -49 10 -12 28 -26 39 -31 26 -13 61 -73
54 -92 -7 -18 24 -51 55 -58 36 -8 63 22 51 55 -10 26 -6 49 9 49 5 0 9 -14 9
-31 0 -24 3 -30 16 -25 11 4 9 -3 -8 -22 -12 -16 -34 -47 -48 -70 -16 -27 -30
-40 -40 -37 -23 7 -25 -68 -2 -88 36 -30 63 -28 100 9 18 18 35 34 37 34 2 0
-19 -34 -47 -75 -30 -43 -56 -71 -62 -67 -19 12 -36 11 -36 -3 0 -7 7 -15 15
-19 11 -4 14 -13 9 -31 -15 -61 71 -89 121 -40 35 36 31 24 -15 -44 -22 -32
-40 -65 -40 -72 -1 -10 -4 -9 -14 4 -17 22 -26 22 -26 -3 0 -11 5 -20 12 -20
9 0 9 -3 0 -12 -17 -17 -15 -44 4 -62 23 -23 89 -21 114 4 16 16 20 17 20 5 0
-9 -7 -18 -15 -21 -8 -4 -15 -10 -15 -15 0 -4 -13 -29 -29 -54 -24 -38 -31
-43 -38 -30 -9 15 -11 15 -22 1 -10 -12 -10 -16 -2 -16 8 0 10 -11 6 -33 -5
-25 -2 -39 10 -50 21 -21 83 -22 113 -1 12 8 22 10 22 5 0 -6 -4 -11 -8 -11
-5 0 -19 -19 -32 -42 -30 -55 -45 -69 -62 -63 -11 4 -14 -6 -13 -45 1 -59 21
-79 78 -80 20 0 37 -2 37 -5 0 -17 -48 -75 -61 -75 -19 0 -33 -26 -19 -35 6
-4 7 -17 4 -31 -15 -61 78 -89 132 -39 21 19 30 22 45 14 14 -7 19 -6 19 3 0
10 2 10 9 0 4 -8 12 -13 17 -11 14 4 54 -61 54 -87 0 -13 -6 -24 -12 -24 -8
-1 -6 -6 4 -14 10 -7 15 -16 11 -19 -3 -4 1 -15 9 -24 9 -10 19 -32 23 -50 8
-40 4 -41 -150 -48 -60 -3 -130 -9 -155 -13 -25 -4 -56 -5 -70 -2 -14 4 -33 3
-43 -2 -20 -10 -239 -29 -322 -28 -27 0 -79 -1 -115 -3 -36 -2 -135 -4 -220
-5 -85 -1 -182 -2 -215 -3 -277 -8 -465 -11 -507 -10 -7 0 -87 -3 -178 -8
-105 -6 -172 -6 -183 1 -12 6 -22 6 -30 -1 -18 -14 -568 -13 -585 2 -10 8 -16
7 -22 -4 -7 -11 -44 -15 -177 -17 -92 -1 -187 -5 -209 -8 -46 -6 -84 8 -84 31
0 22 -14 18 -25 -8 -10 -21 -15 -22 -146 -24 -157 -2 -176 5 -226 79 -39 58
-45 116 -27 248 7 58 25 188 39 290 38 280 52 412 85 815 16 204 34 420 39
480 6 61 13 155 16 210 3 55 10 123 15 150 5 28 12 112 15 189 4 76 8 143 10
150 2 6 12 132 21 280 18 300 19 306 88 336 35 15 62 17 176 13 74 -3 151 -10
170 -15z m2180 -113 c27 -13 43 -33 71 -88 21 -40 42 -73 48 -73 6 -1 18 -2
26 -3 8 0 15 -6 15 -12 0 -5 -4 -7 -10 -4 -6 3 -10 -4 -10 -17 0 -26 -40 -50
-62 -37 -7 5 -32 9 -55 9 -24 0 -43 5 -43 10 0 6 -12 10 -27 11 -24 0 -25 2
-8 8 19 8 19 8 -1 19 -14 7 -25 29 -33 66 -7 31 -17 56 -23 56 -9 0 -3 53 9
73 6 11 63 1 103 -18z m3839 -200 c13 -44 10 -89 -4 -50 -3 11 -11 28 -16 37
-11 22 -12 58 -1 58 4 0 14 -20 21 -45z m62 32 c-1 -12 -15 -9 -19 4 -3 6 1
10 8 8 6 -3 11 -8 11 -12z m9 -78 c0 -6 -4 -7 -10 -4 -5 3 -10 11 -10 16 0 6
5 7 10 4 6 -3 10 -11 10 -16z m-37 -64 c-3 -9 -8 -14 -10 -11 -3 3 -2 9 2 15
9 16 15 13 8 -4z m29 -67 c-7 -7 -12 -8 -13 -2 0 5 -2 18 -4 28 -3 18 -2 18
13 3 13 -13 14 -19 4 -29z m-3056 -57 c-3 -4 -10 -21 -16 -36 -6 -15 -13 -25
-16 -22 -6 6 23 67 32 67 3 0 3 -4 0 -9z m3234 -132 c0 -5 -4 -9 -10 -9 -5 0
-10 7 -10 16 0 8 5 12 10 9 6 -3 10 -10 10 -16z m-3 -71 c-3 -8 -6 -5 -6 6 -1
11 2 17 5 13 3 -3 4 -12 1 -19z m0 -60 c0 -7 4 -22 7 -33 5 -13 2 -12 -8 5
-17 29 -20 40 -8 40 5 0 9 -6 9 -12z m-3584 -942 c-4 -17 -10 -22 -24 -19 -15
4 -16 9 -8 24 14 28 37 24 32 -5z m25 -185 c0 -23 -3 -29 -19 -28 -23 2 -24
15 -2 39 21 23 20 23 21 -11z m22 -140 c-5 -11 -15 -23 -21 -27 -6 -3 -3 5 6
20 20 30 30 35 15 7z m0 -73 c0 -16 -3 -19 -11 -11 -6 6 -8 16 -5 22 11 17 16
13 16 -11z m58 -253 c-3 -3 -9 2 -12 12 -6 14 -5 15 5 6 7 -7 10 -15 7 -18z
m-4495 -57 c33 -24 50 -63 42 -96 -5 -21 -11 -23 -57 -21 -52 3 -70 -9 -103
-66 -10 -16 -12 -16 -44 3 -39 24 -80 86 -81 124 0 29 23 58 46 58 8 0 14 4
14 9 0 28 141 19 183 -11z m4537 -328 c0 -5 -2 -10 -4 -10 -3 0 -8 5 -11 10
-3 6 -1 10 4 10 6 0 11 -4 11 -10z m-5215 -630 c-3 -5 -11 -10 -16 -10 -6 0
-7 5 -4 10 3 6 11 10 16 10 6 0 7 -4 4 -10z m-6 -113 c-2 -1 -13 -9 -24 -17
-19 -14 -19 -14 -6 3 7 9 18 17 24 17 6 0 8 -1 6 -3z m-29 -137 c0 -5 -5 -10
-11 -10 -5 0 -7 5 -4 10 3 6 8 10 11 10 2 0 4 -4 4 -10z"/>
<path d="M6551 4524 c0 -11 3 -14 6 -6 3 7 2 16 -1 19 -3 4 -6 -2 -5 -13z"/>
<path d="M6590 4530 c0 -5 5 -10 10 -10 6 0 10 5 10 10 0 6 -4 10 -10 10 -5 0
-10 -4 -10 -10z"/>
<path d="M4929 1533 c-13 -16 -12 -17 4 -4 9 7 17 15 17 17 0 8 -8 3 -21 -13z"/>
<path d="M2799 1483 c-13 -16 -12 -17 4 -4 16 13 21 21 13 21 -2 0 -10 -8 -17
-17z"/>
<path d="M4200 1490 c-8 -5 -12 -12 -9 -15 4 -3 12 1 19 10 14 17 11 19 -10 5z"/>
<path d="M5343 703 c15 -2 37 -2 50 0 12 2 0 4 -28 4 -27 0 -38 -2 -22 -4z"/>
<path d="M4105 630 c-37 -7 -36 -7 20 -8 33 0 78 3 100 7 38 8 37 9 -20 8 -33
0 -78 -3 -100 -7z"/>
<path d="M9210 5226 c0 -15 24 -66 31 -66 5 0 9 16 9 35 0 28 -4 35 -20 35
-11 0 -20 -2 -20 -4z"/>
<path d="M9386 5133 c-9 -56 -7 -101 4 -108 6 -4 10 22 10 69 0 42 -2 76 -4
76 -2 0 -6 -17 -10 -37z"/>
<path d="M9251 4761 c-8 -5 -11 -16 -7 -26 3 -10 1 -24 -5 -31 -6 -8 -9 -20
-6 -28 3 -8 -4 -33 -16 -55 -20 -37 -21 -41 -5 -57 15 -15 17 -15 27 4 6 12
11 25 10 29 -4 24 3 44 14 42 28 -3 37 3 53 36 29 62 -13 119 -65 86z"/>
<path d="M8917 4714 c-9 -9 -7 -72 3 -104 l8 -25 2 25 c6 67 6 86 0 98 -3 7
-9 9 -13 6z"/>
<path d="M9072 4708 c6 -18 28 -21 28 -4 0 9 -7 16 -16 16 -9 0 -14 -5 -12
-12z"/>
<path d="M8895 4430 c-3 -5 -2 -10 4 -10 5 0 13 5 16 10 3 6 2 10 -4 10 -5 0
-13 -4 -16 -10z"/>
<path d="M9386 4372 c-2 -4 -14 -37 -26 -72 -12 -36 -25 -73 -31 -82 -5 -10
-9 -29 -9 -43 0 -14 -4 -25 -10 -25 -5 0 -10 -13 -10 -30 0 -16 -4 -30 -10
-30 -5 0 -10 -11 -10 -24 0 -13 -7 -29 -15 -36 -8 -7 -12 -16 -10 -21 3 -4 2
-16 -3 -26 -20 -40 -44 -120 -44 -143 1 -14 -10 -47 -23 -75 -26 -57 -38 -90
-55 -157 -7 -27 -17 -48 -22 -48 -7 0 -8 -35 -3 -97 12 -166 8 -356 -9 -397
-8 -20 -13 -42 -10 -50 3 -7 -2 -34 -11 -61 -17 -49 -18 -53 -30 -123 -8 -52
4 -171 16 -151 6 10 11 6 19 -15 6 -17 7 -33 1 -40 -5 -7 -3 -30 6 -59 12 -43
19 -51 59 -68 50 -22 55 -43 25 -94 -16 -28 -22 -30 -77 -30 -57 0 -88 -16
-68 -35 14 -11 173 -52 226 -57 43 -5 49 -3 59 21 7 14 20 26 31 26 10 0 18 5
18 10 0 6 -4 10 -10 10 -5 0 -10 9 -10 20 0 15 9 22 30 27 36 7 39 18 8 28
-14 4 -18 8 -10 12 19 8 14 23 -8 23 -11 0 -20 7 -20 15 0 8 -9 15 -20 15 -13
0 -20 7 -20 18 0 11 -14 25 -34 35 -25 12 -36 25 -41 49 -4 18 -15 44 -24 58
-10 14 -24 41 -31 60 -7 19 -17 39 -22 44 -4 6 -8 29 -8 52 0 24 -4 46 -10 49
-5 3 -10 22 -10 41 0 30 3 34 25 34 14 0 25 -4 25 -10 0 -5 7 -10 15 -10 8 0
15 5 15 10 0 6 13 10 29 10 16 0 32 6 35 13 5 10 7 10 12 0 9 -20 24 -15 24 8
0 19 1 20 18 3 16 -17 17 -17 20 3 2 12 16 26 33 33 l29 12 0 214 0 213 -47 3
c-45 3 -48 5 -55 38 -6 27 -3 44 14 78 20 36 27 42 55 42 l33 0 0 395 c0 217
-2 395 -4 395 -3 0 -7 -4 -10 -8z"/>
<path d="M8330 4058 c0 -25 17 -48 34 -48 6 0 5 5 -2 12 -7 7 -12 20 -12 29 0
10 -4 21 -10 24 -6 3 -10 -4 -10 -17z"/>
<path d="M4806 4014 c-12 -31 -5 -59 19 -77 33 -24 40 -6 19 48 -18 47 -28 55
-38 29z"/>
<path d="M8380 3987 c0 -17 21 -57 30 -57 17 0 11 26 -10 45 -11 10 -20 15
-20 12z"/>
<path d="M8870 3960 c0 -11 6 -20 14 -20 9 0 12 7 9 20 -3 11 -9 20 -14 20 -5
0 -9 -9 -9 -20z"/>
<path d="M8885 3920 c-3 -6 -5 -23 -4 -38 1 -15 -1 -34 -4 -42 -3 -8 -8 -28
-11 -43 -4 -15 -11 -25 -15 -22 -19 11 -43 -7 -36 -29 15 -54 21 -175 10 -241
-11 -74 -11 -216 1 -226 7 -5 15 -25 18 -44 11 -54 34 -44 40 18 4 28 6 68 5
87 -2 64 9 285 15 300 12 30 12 283 -1 287 -6 2 -14 -1 -18 -7z"/>
<path d="M8810 3836 c0 -18 16 -29 30 -21 6 4 5 12 -4 21 -18 18 -26 18 -26 0z"/>
<path d="M8370 3756 c0 -7 7 -19 15 -26 16 -13 20 -3 9 24 -8 20 -24 21 -24 2z"/>
<path d="M6354 3547 c11 -7 30 -23 43 -36 15 -15 23 -19 23 -10 0 14 -59 59
-76 58 -5 0 0 -6 10 -12z"/>
<path d="M5922 3429 c-6 -24 -7 -38 -1 -32 13 13 29 73 20 73 -5 0 -13 -19
-19 -41z"/>
<path d="M6110 3395 c0 -13 43 -25 67 -18 l28 7 -25 7 c-30 8 -70 11 -70 4z"/>
<path d="M8691 3334 c0 -11 3 -14 6 -6 3 7 2 16 -1 19 -3 4 -6 -2 -5 -13z"/>
<path d="M8360 3304 c0 -7 11 -36 24 -65 101 -228 149 -335 152 -338 2 -2 10
-1 19 3 15 5 14 9 -5 35 -11 17 -58 108 -105 203 -46 95 -84 168 -85 162z"/>
<path d="M8700 3250 c6 -11 13 -20 15 -20 3 0 5 9 5 20 0 11 -7 20 -15 20 -13
0 -14 -4 -5 -20z"/>
<path d="M9041 3224 c0 -11 3 -14 6 -6 3 7 2 16 -1 19 -3 4 -6 -2 -5 -13z"/>
<path d="M5546 3201 c-4 -7 -5 -15 -2 -18 9 -9 19 4 14 18 -4 11 -6 11 -12 0z"/>
<path d="M9014 3159 c-3 -6 -1 -16 5 -22 9 -9 14 -8 21 3 9 15 4 30 -10 30 -5
0 -12 -5 -16 -11z"/>
<path d="M8830 3130 c0 -5 5 -10 10 -10 6 0 10 5 10 10 0 6 -4 10 -10 10 -5 0
-10 -4 -10 -10z"/>
<path d="M8850 3075 c0 -8 7 -15 15 -15 9 0 12 6 9 15 -4 8 -10 15 -15 15 -5
0 -9 -7 -9 -15z"/>
<path d="M9000 3064 c0 -8 5 -12 10 -9 6 3 10 10 10 16 0 5 -4 9 -10 9 -5 0
-10 -7 -10 -16z"/>
<path d="M8880 3025 c-10 -26 -8 -31 11 -45 18 -14 20 -20 10 -38 -15 -29 -14
-52 3 -52 30 0 32 81 3 135 l-15 30 -12 -30z"/>
<path d="M8996 3002 c-2 -4 -1 -14 5 -22 7 -12 9 -10 9 8 0 23 -5 28 -14 14z"/>
<path d="M6760 2986 c0 -2 9 -6 20 -9 11 -3 18 -1 14 4 -5 9 -34 13 -34 5z"/>
<path d="M6940 2911 c0 -10 24 -21 43 -21 7 0 3 7 -7 15 -22 17 -36 19 -36 6z"/>
<path d="M8554 2887 c-8 -23 35 -102 48 -89 8 8 6 23 -7 52 -21 47 -33 57 -41
37z"/>
<path d="M8919 2863 c-1 -4 0 -18 0 -29 1 -12 -4 -28 -11 -35 -15 -16 -41 -70
-56 -118 -14 -43 7 -104 33 -95 12 5 15 13 10 28 -12 40 -12 61 1 81 8 11 14
30 14 44 0 13 3 21 7 18 3 -4 11 1 17 11 15 22 13 95 -3 100 -6 2 -11 0 -12
-5z"/>
<path d="M5430 2613 c-63 -10 -75 -21 -77 -69 -1 -25 -7 -51 -13 -59 -13 -16
-10 -18 53 -35 45 -12 50 -12 69 7 17 17 18 24 9 42 -12 22 -6 45 9 36 9 -6
20 18 20 46 0 10 5 19 10 19 6 0 10 5 10 10 0 10 -41 11 -90 3z m-15 -123 c3
-6 -5 -10 -19 -10 -14 0 -28 5 -31 10 -3 6 5 10 19 10 14 0 28 -4 31 -10z"/>
<path d="M8910 2581 c0 -6 5 -13 10 -16 6 -3 10 1 10 9 0 9 -4 16 -10 16 -5 0
-10 -4 -10 -9z"/>
<path d="M8940 2540 c0 -5 5 -10 11 -10 5 0 7 5 4 10 -3 6 -8 10 -11 10 -2 0
-4 -4 -4 -10z"/>
<path d="M8967 2493 c-4 -3 -7 -15 -7 -25 0 -26 24 -17 28 10 3 21 -8 29 -21
15z"/>
<path d="M6815 2460 c-3 -5 -1 -10 4 -10 6 0 11 5 11 10 0 6 -2 10 -4 10 -3 0
-8 -4 -11 -10z"/>
<path d="M5320 2434 c0 -11 5 -14 16 -10 9 3 21 6 27 6 16 0 -14 20 -30 20 -7
0 -13 -7 -13 -16z"/>
<path d="M4750 2360 c0 -5 7 -10 16 -10 8 0 12 5 9 10 -3 6 -10 10 -16 10 -5
0 -9 -4 -9 -10z"/>
<path d="M4825 2350 c-3 -5 -1 -10 4 -10 6 0 11 5 11 10 0 6 -2 10 -4 10 -3 0
-8 -4 -11 -10z"/>
<path d="M7698 1918 c-9 -16 -13 -76 -13 -195 0 -94 -4 -175 -8 -179 -4 -4
-39 -3 -78 4 -38 7 -83 12 -100 12 -29 0 -30 -1 -24 -32 11 -50 21 -72 39 -87
9 -7 16 -22 16 -32 0 -11 3 -19 8 -19 4 0 20 -11 35 -25 19 -19 27 -36 27 -61
0 -26 13 -52 58 -110 31 -42 71 -97 87 -123 17 -26 50 -70 74 -97 24 -27 64
-79 88 -116 50 -77 80 -103 100 -86 7 6 13 7 13 3 0 -3 16 3 36 15 23 15 39
19 45 13 5 -5 29 -7 52 -3 30 4 47 2 55 -6 14 -16 15 -31 3 -36 -5 -1 -15 -41
-21 -88 -6 -46 -14 -89 -18 -94 -3 -6 -6 -19 -7 -30 -1 -12 -11 -68 -23 -126
-12 -58 -29 -141 -38 -185 -18 -91 -30 -144 -43 -198 l-9 -38 88 2 c84 1 88 2
77 20 -15 24 -2 36 20 18 16 -12 17 -12 7 1 -20 29 -34 70 -23 70 5 0 13 -8
16 -17 10 -26 31 -45 37 -34 3 5 -1 11 -9 15 -8 3 -15 10 -15 17 0 6 -9 24
-21 41 -29 40 -20 44 19 8 39 -36 40 -30 4 24 -53 78 -54 86 -3 35 32 -32 41
-28 18 6 -8 11 -22 33 -33 50 l-19 30 29 -23 c39 -30 45 -20 12 22 -33 43 -33
53 -1 32 20 -13 25 -14 25 -2 0 7 -7 19 -16 26 -8 8 -20 23 -26 34 -11 20 -10
20 9 3 11 -9 23 -17 26 -17 14 0 6 27 -13 48 -21 23 -14 32 8 10 20 -20 15 22
-5 44 -16 18 -16 18 0 12 25 -9 22 23 -6 49 -12 12 -18 19 -13 15 15 -12 36
-9 36 4 0 6 -8 20 -17 30 -17 19 -16 19 12 13 21 -5 26 -4 16 3 -9 6 -11 19
-7 35 4 17 -1 33 -14 50 -24 31 -25 38 -3 30 13 -5 15 -3 9 13 -16 38 -18 54
-7 54 6 0 11 -5 11 -12 0 -6 3 -8 6 -5 4 4 1 13 -6 22 -9 11 -10 18 -1 28 6 8
8 17 4 20 -3 4 1 7 10 7 9 0 17 7 17 15 0 8 -4 15 -10 15 -12 0 -40 54 -40 78
0 27 -43 101 -77 133 -113 106 -157 157 -218 253 -12 19 -25 70 -35 135 l-15
104 -35 12 c-43 14 -63 50 -90 166 -46 199 -62 230 -92 177z"/>
<path d="M6210 1910 c0 -5 5 -10 11 -10 5 0 7 5 4 10 -3 6 -8 10 -11 10 -2 0
-4 -4 -4 -10z"/>
<path d="M8941 1452 c-37 -18 -52 -42 -28 -42 9 0 23 8 33 17 11 12 19 14 21
6 7 -19 73 6 73 28 0 15 -63 9 -99 -9z"/>
<path d="M8815 1421 c-3 -5 -1 -12 4 -15 12 -8 41 3 41 15 0 12 -37 12 -45 0z"/>
<path d="M8734 1400 c-16 -16 -265 -49 -293 -39 -14 6 -27 6 -30 1 -3 -5 -23
-15 -43 -21 -93 -30 -50 -60 80 -57 104 3 155 16 212 51 19 12 52 28 73 36 20
7 37 19 37 26 0 15 -22 17 -36 3z"/>
<path d="M9050 1106 c-27 -40 -30 -52 -30 -119 0 -42 -4 -77 -9 -79 -5 -2 -12
-22 -16 -45 -6 -39 -4 -46 24 -74 18 -18 28 -35 24 -42 -18 -28 -31 -82 -29
-118 2 -28 -3 -48 -16 -65 -19 -23 -23 -47 -17 -84 7 -45 -2 -82 -21 -87 -11
-3 -20 -9 -20 -13 0 -4 -8 -10 -17 -14 -10 -3 -25 -11 -34 -17 -31 -23 -49 -4
-49 51 0 32 4 49 10 45 15 -9 12 8 -4 31 -14 18 -16 16 -35 -29 -13 -30 -29
-51 -41 -54 -11 -3 -20 -10 -19 -17 4 -30 -2 -35 -31 -30 -18 4 -30 2 -30 -4
0 -20 -50 -70 -74 -74 -22 -4 -24 -1 -30 45 -4 27 -3 54 2 60 17 21 25 79 24
179 0 72 3 100 14 109 11 9 12 15 2 26 -9 11 -9 16 1 22 7 5 11 17 9 27 -2 11
8 38 24 61 27 41 37 87 19 97 -4 3 -11 19 -14 36 -6 27 -10 30 -45 30 -31 0
-41 -5 -52 -25 -7 -14 -21 -25 -29 -25 -9 0 -22 -9 -29 -20 -16 -26 -5 -130
14 -137 8 -3 14 -11 14 -19 0 -8 -6 -11 -15 -8 -20 8 -19 1 5 -38 24 -39 28
-74 5 -44 -20 27 -31 12 -15 -20 11 -20 11 -27 2 -33 -7 -4 -10 -15 -7 -23 4
-9 2 -19 -4 -23 -6 -3 -11 -15 -11 -25 0 -10 -8 -23 -17 -29 -11 -6 -17 -21
-17 -44 0 -24 -4 -33 -13 -30 -17 7 -16 -9 2 -33 19 -25 19 -35 0 -28 -17 7
-22 -31 -5 -41 16 -10 11 -28 -6 -21 -13 5 -15 1 -11 -16 2 -13 8 -31 12 -41
6 -14 4 -16 -10 -10 -15 5 -17 2 -12 -17 3 -13 1 -30 -5 -37 -6 -7 -8 -24 -6
-38 3 -14 1 -25 -5 -25 -5 0 -7 -9 -4 -20 3 -10 -1 -24 -8 -30 -10 -8 -10 -16
-1 -35 l11 -24 362 -1 361 0 -5 43 c-6 47 -55 107 -104 128 -31 12 -31 13 -30
79 2 68 21 139 47 178 13 19 24 45 24 58 0 29 26 32 35 5 3 -11 15 -23 26 -26
10 -4 19 -13 19 -21 0 -22 16 -16 28 11 14 31 16 65 3 65 -5 0 -11 7 -15 15
-6 18 31 65 51 65 9 0 13 8 11 23 -2 15 -11 23 -28 25 -90 11 -135 92 -97 176
12 27 14 27 69 21 32 -3 77 -14 100 -24 24 -10 64 -21 91 -25 l47 -6 0 38 c0
30 -7 43 -35 67 -19 17 -55 49 -79 72 -24 24 -56 47 -70 53 -15 5 -29 18 -33
27 -4 10 -14 23 -23 30 -10 7 -23 26 -30 43 -18 43 -43 38 -80 -14z m-173
-782 c-3 -3 -12 -4 -19 -1 -8 3 -5 6 6 6 11 1 17 -2 13 -5z"/>
<path d="M8866 1081 c-9 -16 -16 -37 -16 -46 0 -8 -11 -20 -24 -25 -45 -17
-62 -81 -27 -100 11 -5 25 -26 31 -46 9 -28 15 -33 22 -23 7 11 11 11 15 2 2
-7 9 -13 13 -13 11 0 30 66 30 106 0 16 5 35 10 40 6 6 12 37 13 70 2 57 1 59
-25 62 -21 3 -30 -3 -42 -27z"/>
<path d="M8824 727 c-3 -8 -4 -28 -2 -44 2 -22 9 -29 31 -31 26 -3 27 -1 27
37 0 23 -4 41 -9 41 -5 0 -16 3 -25 6 -9 4 -18 0 -22 -9z"/>
<path d="M9210 486 c0 -10 8 -16 22 -16 12 0 19 1 17 3 -2 1 -12 9 -21 16 -15
12 -18 11 -18 -3z"/>
<path d="M6900 325 c-8 -9 -8 -15 -2 -15 12 0 26 19 19 26 -2 2 -10 -2 -17
-11z"/>
<path d="M6816 285 c-4 -13 -2 -14 14 -5 23 13 26 20 6 20 -8 0 -16 -7 -20
-15z"/>
</g>
</svg>
